<svg width="100" height="88" viewBox="0 0 100 88" fill="none" xmlns="http://www.w3.org/2000/svg">
<path d="M88.3067 11.9766C86.0934 9.76233 83.4655 8.00578 80.5732 6.80734C77.6809 5.6089 74.5808 4.99207 71.45 4.99207C68.3192 4.99207 65.2191 5.6089 62.3268 6.80734C59.4345 8.00578 56.8066 9.76233 54.5933 11.9766L50 16.57L45.4067 11.9766C40.936 7.50598 34.8725 4.99438 28.55 4.99438C22.2275 4.99438 16.164 7.50598 11.6933 11.9766C7.22265 16.4473 4.71106 22.5108 4.71106 28.8333C4.71106 35.1558 7.22265 41.2193 11.6933 45.69L16.2867 50.2833L50 83.9966L83.7133 50.2833L88.3067 45.69C90.521 43.4767 92.2775 40.8488 93.476 37.9565C94.6744 35.0642 95.2912 31.9641 95.2912 28.8333C95.2912 25.7025 94.6744 22.6024 93.476 19.7101C92.2775 16.8178 90.521 14.1899 88.3067 11.9766V11.9766Z" stroke="#222141" stroke-width="8" stroke-linecap="round" stroke-linejoin="round"/>
</svg>
